<?xml version="1.0" encoding="UTF-8"?>
<svg version="1.1" viewBox="0 0 2048 2048" width="512" height="512" xmlns="http://www.w3.org/2000/svg">
<path transform="translate(765,9)" d="m0 0h509l17 1 13 4 11 6 11 9 9 11 7 14 3 15v138l-2 12-5 13-7 11-4 5-11 9-14 7-10 3-8 1h-523l-16-4-12-6-11-9-8-10-8-16-3-11-1-30v-10h-604l-13 2-10 6-8 9-4 9-1 5-1 15v222l2 13 6 12 9 8 12 5 7 1h1823l37-1 11-4 9-7 6-9 3-11v-244l-3-10-6-9-7-6-11-5-8-1-500-1-9-3-10-9-5-10-1-3v-10l4-11 8-9 10-5 9-1h491l16 1 17 4 14 6 14 9 12 11 8 9 8 13 7 16 2 6v4h2v275h-2l-4 13-8 16-9 13-11 11-11 8-16 8-14 5-12 2v1060l16 3 15 6 11 6 13 10 8 8 10 14 8 16 4 12 2 1v158h-2l-4 13-8 16-7 10-9 10-9 8-13 8-11 5-13 4-11 2-14 1-405 1-1 67-2 11-4 11-7 11-9 10-11 8-14 6-9 2-47 1h-858l-18-1-12-3-15-8-12-11-9-13-5-12-2-8-1-17v-54l-409-1-18-2-14-4-14-6-13-9-10-9-9-10-7-11-6-12-6-18v-151h2l1-8 6-15 9-16 12-13 9-8 16-10 16-6 14-3 1-5v-1052l1-3-12-2-15-5-17-9-11-9-9-9-8-11-6-10-7-19-2-7v-269l3-8 5-13 8-15 8-10 12-12 13-9 15-7 14-4 19-2h605l1-44 3-11 5-12 9-12 8-8 13-8 11-4zm3 61-4 2v133l1 2h517l2-5v-127l-1-4-3-1zm-582 470 2 4 7 7 7 8 15 16 7 8 11 12 7 8 11 12 10 11 7 8 12 13 18 20 11 12 7 8 22 24 2-1-1-169zm217 1-1 13v856h591v-251l-7 6-94 94-10 6-12 2-10-2-6-3-5-4-6-10-2-7 1-12 5-10 246-246v-2l4-2v-2l4-2v-2l4-2v-2l4-2 9-9 14-10 15-8 18-6 17-3 14-1h35l15 2 9 6 6 7 3 7 1 11-3 10-6 9-10 6-16 2-44 1-12 3-11 6-10 8-98 98-1 47v107l-1 265-6 12-8 7-9 3h-13l-10-4-7-7-5-10-1-6-1-40h-550l-41 1v125l1 4h1242v-130h-483l-10-2-9-6-7-11-2-8 1-10 4-9 7-8 8-4 4-1 487-1v-869h-135l-1 105 2 5 12 7 10 9 5 5 8 10 8 15 5 17 2 16-2 21-5 16-7 14-10 13-50 50 2 4 3 3h2v2h2l2 4 7 8 3 7 1 11-3 10-6 9-7 5-9 3h-10l-10-4-9-7-159-159-7-10-3-12 2-10 4-8 4-5 8-5 7-2h10l11 4 10 9 13 13 3 1 10-10v-2h2v-2h2v-2h2v-2h2v-2h2v-2h2v-2l4-2v-2l4-2v-2l4-2v-2h2v-2h2v-2h2v-2h2v-2l4-2 11-10 13-8 12-5 8-3 1-2-1-100h-848l-1 4v98l16 6 10 5 11 8 12 11 38 38h2l2 4 3-1 7-8 10-10 10-6 6-2h10l9 3 6 4 6 7 4 9v12l-3 8-8 11-160 160-10 6-6 2h-10l-11-4-7-6-5-8-2-7v-9l4-11 3-4v-2h2l7-8 5-4-1-5-49-49-10-14-7-14-4-13-2-14v-11l3-19 6-16 8-13 5-6v-2h2l6-7 14-10 7-4v-109zm1457-1-153 1-1 170 4-2 22-24 7-8 12-13 11-12 10-11 7-8 9-10 2-4h2l7-8 11-12 7-8 9-10 14-15 12-14 9-10zm-1713 50 1 401 4-2 9-11 7-7 7-8 13-14v-2h2l7-8 9-10 12-13 10-11v-2h2l7-8 9-10 4-4v-2h2l7-8 2-4h2l7-8 9-10 11-12v-2l3-1 7-8 12-13 7-8 9-10 2-5-13-14-7-8-13-14-7-8-9-10-22-24-9-10-7-8-12-13-11-12-9-10-7-8-12-13-7-8-10-11-7-8-15-16-5-5zm1751 1-9 10-12 13-7 8-22 24-7 8-11 12-7 8-11 12v2h-2l-7 8-11 12v2h-2l-7 8-11 12-7 8-13 14-7 8-22 24v2h-2v2h-2v2l-2 1 13 15 15 16 11 12 7 8 12 13 9 10 12 13 7 8 12 13 9 10 12 13 9 10 11 12 9 10 11 12 9 10 12 13 1 2h2v-400zm-1322 110-9 2-10 6-7 10-3 12 2 12 6 10 47 47 4 1v-2h2l7-8 32-32-2-4-47-47-12-6zm893 0-10 2-9 5-47 47-3 2v2l5 5 3 1 2 4h2v2h2l2 4h2v2h2l2 4 10 10 8 7 3 3 4-2 47-47 5-9 1-4v-13l-3-8-6-9-10-6zm-1130 171-9 10v2h-2l-7 8-13 14-7 8-13 14-7 8-13 14-7 8-13 14-7 8-13 14-7 8-13 14v2h-2l-7 8-12 13-11 12-9 10-1 3h-2l-5 5 1 4 7 8 12 13 7 8 9 10 11 12 18 20 2 3h2l2 4 15 16 7 8 11 12 7 8 12 13 27 30 11 12 9 10 11 12h1v-400zm1368 0-1 4v395l4-2 22-24 7-8 11-12 12-13 10-11 7-8 24-26 9-10v-2h2l7-8 9-10 4-4v-2h2l7-8 2-4h2l9-11 16-17 9-10 7-7 1-4-10-11-7-8-15-16-9-10-10-11-7-8-14-15-12-13-10-11-7-8-14-15-9-10-10-11-7-8-14-15-9-10-12-13-4-5zm-1560 279 1 400 6-5 7-8 1-3h2l7-8 13-14v-2h2l7-8 1-3h2l7-8 3-3v-2l3-1 7-8 12-13v-2h2l7-8 12-13 15-16 9-10 12-13 9-10 4-4v-2h2l7-8 2-4h2l7-8 9-10 3-3-1-4-11-12-7-8-12-13-11-12-9-10-7-8-12-13-11-12-7-8-9-10-22-24-12-14-16-17-7-8-11-12-10-11-6-7zm1752 0-5 5-13 14-7 8-22 24-7 8-13 14-7 8-13 14-7 8-13 14v2h-2l-7 8-11 12-7 8-14 15-9 10-11 12-12 13v2h-2l-1 3 7 8 10 10 7 8 84 91 14 15 11 12 24 26 14 15 12 13h1v-400zm-1558 281m1365 1 1 167h152v-3l-9-10-15-16-7-8-15-16-14-15-22-24-14-15-11-12-12-13-11-12-14-15-5-6zm-1366 0-19 19-7 8-2 4h-2l-7 8-55 60-2 4h-2l-7 8-13 14v2h-2l-7 8-11 12-14 15-3 4 2 1h151l1-1v-166zm-228 227-22 1-12 5-9 8-5 8-3 10-1 11v106l2 14 6 12 7 7 12 6 12 2h475l1-6 1-65 3-12 5-11 6-9 6-7 2-1v-2l5-2 9-6 14-5 6-1 76-1 1-6v-55zm658 1v61h507l1-1v-60zm569 0v61l76 1 16 4 13 7 12 11 8 11 6 14 2 13 1 67h476l12-2 10-5 7-6 6-9 3-11v-124l-4-13-7-9-8-6-11-4zm-702 122-1 1v66l130 1 10 4 4 2 2 4 5 8 2 6v10l-3 9-7 9-6 4-7 2-10 1-188 1-1 9v29l1 28 98 1h793l20-1 1-2v-64l-579-1-9-2-9-6-6-8-3-7v-13l4-10 6-7 12-6 516-1v-63l-2-4z"/>
<path transform="translate(1799,294)" d="m0 0h8l10 3 6 4 8 9 3 7 1 5v7l-3 10-6 8-6 5-10 4h-14l-10-4-5-4-6-9-3-8v-10l3-10 7-9 7-5z"/>
<path transform="translate(246,294)" d="m0 0 13 1 8 4 9 8 4 8 1 3v15l-5 10-6 7-9 5-4 1h-15l-9-4-6-5-5-7-3-9v-11l4-11 8-9 10-5z"/>
<path transform="translate(2047,186)" d="m0 0"/>
</svg>
