<?xml version="1.0" encoding="UTF-8"?>
<svg version="1.1" viewBox="0 0 2048 2048" width="512" height="512" xmlns="http://www.w3.org/2000/svg">
<path transform="translate(850)" d="m0 0h121l2 2 21 7 16 8 11 8 14 12 11 13 10 16 7 16 5 18 2 14 1 13 3 8 5 4 7 2 69 1 15 2 15 4 15 6 16 9 11 9 12 11 11 14 9 16 6 14 3 9 197 1h86l37 1 15 3 15 6 14 8 13 12 9 10 8 13 5 11 4 15 1 8v260l-4 10-8 9-9 4-4 1h-11l-9-3-8-7-6-9-2-9-1-251-4-13-9-10-10-5-4-1-14-1h-39v379l-1 85-4 10-7 8-8 4-6 2h-11l-10-4-8-7-6-12-1-7v-458h-196v20l-2 16-4 12-6 12-10 13h-2v2l-12 9-13 6-9 3-11 2h-591l-16-4-16-8-13-11-8-10-8-15-4-14-1-8-1-25h-190l-5-1v1516l3 7 4 3 434 1 2-5 8-17 84-168 7-13 10-13 14-17 11-14 13-16 8-10 11-14 10-12 7-9 13-16 11-14 9-11 11-14 13-16 8-10 11-14 10-12 10-13 9-11 8-10 11-14 10-12 10-13 9-11 5-7h2l2-4 11-14 13-16 11-14 14-17 11-14 13-16 11-14 13-16 11-14 13-16 8-10 11-14 13-16 8-10 11-14 13-16 8-10 11-14 13-16 8-10 13-16 8-10 11-14 13-16 11-14 11-13 10-13 13-16 8-10 11-14 10-12 10-13 9-11 8-10 11-14 10-12 10-13 10-12 4-6h2l2-4 12-16h2l2-4 11-14 13-16 11-14 14-17 11-14 13-16 11-14 13-16 11-14 9-10 10-10 14-10 15-8 21-7 11-2 21-1 20 2 21 6 16 8 11 7 15 12v2h2l9 11 7 10 10 19 5 16 3 16 1 18-2 17-4 17-8 19-9 15-7 9-9 11-10 13-10 12-11 14-10 12-11 14-13 16-11 14-9 11-11 14-13 16-12 15-11 14-14 17-11 14-13 16-11 14-13 16-11 14-13 16-20 25-11 14-14 17-11 14-13 16-11 14-13 16-11 14-13 16-8 10-11 14-13 16-36 45-11 14-9 11-26 32-11 14-13 16-11 14-13 16-8 10-11 14-13 16-12 15-11 14-9 11-13 16-11 14-13 16-11 14-13 16-11 14-13 16-11 14-13 16-8 10-13 16-11 14-13 16-11 14-13 16-8 10-11 14-13 16-11 13-14 12-14 11-11 9-14 11-4 2v2h419l16-1 4-3h2l1-5 1-453 2-9 5-8 8-7 6-3 4-1h11l11 4 9 8 5 11 1 7v358l-1 98-2 12-4 11-7 12-12 13-10 7-10 5-13 4-5 1-68 1h-448l-5 2-14 12-13 10-8 7-10 8-12 9-15 8-14 4-16 1-14-2-12-4-11-6-14-12-9-13-5-11-3-11v-3l-6 1h-339l-80-1-15-4-13-7-10-8-8-8-8-13-5-11-2-9-1-9v-1519l-42 1-16 2-9 5-5 5-4 5-4 10-1 53v1566l1 15 4 10 9 10 11 5 4 1h1345l10-3 9-6 6-8 3-7 1-5 1-773 3-10 4-6 8-7 10-4h11l11 4 7 6 5 8 2 7v779l-2 13-4 13-8 16-8 11-5 6-11 9-11 7-12 6-18 6h-1372l-1-2-18-6-13-7-10-8-7-6-11-14-9-17-5-16-2-17v-1626l3-19 4-12 7-14 8-11 11-12 14-10 16-8 14-4 7-1 24-1h294l3-1 5-15 8-16 7-11 8-10 13-13 17-12 16-8 18-6 19-3 71-1 10-3 4-8 2-22 5-21 5-13 7-14 10-14 14-15 14-11 16-9 15-6 15-4zm22 60-16 2-12 5-10 6-10 9-9 14-4 11-2 10-2 21-4 15-8 15-7 9-7 7-14 9-12 5-11 3-8 1-70 1-12 2-12 5-10 7-8 7-9 13-5 12-2 7-1 10v53l2 7 7 6 3 1h580l6-3 4-5 1-3v-63l-3-13-7-14-8-10-8-7-10-6-14-5-6-1-74-1-15-3-13-5-11-7-12-11-8-11-6-12-4-13-1-5-1-18-4-16-6-12-9-11-12-9-13-6-9-2-9-1zm897 590-11 3-14 7-12 11-16 20-11 14-13 16-8 10-13 16-12 15-9 11-7 9-2 2v3l13 10 16 13 10 8 14 11 16 13 10 8 14 11 4 2 11-14 13-16 11-14 9-11 11-14 1-3h2l10-13 4-5v-2h2l11-14 3-4v-2h2l8-13 4-13 1-5v-17l-3-13-7-14-6-8-11-9-15-7-9-2zm-168 184-13 17-11 13-7 9-11 14-13 16-11 14-14 17-7 9-13 16-11 14-13 16-11 14-13 16-8 10-11 14-13 16-8 10-11 14-13 16-20 25-11 14-14 17-11 14-13 16-11 14-13 16-11 14-13 16-8 10-11 14-13 16-8 10-11 14-13 16-9 11-13 16-11 14-13 16-11 14-13 16-11 14-9 11-11 14-13 16-12 15-11 14-9 11-13 16-11 14-13 16-11 14-13 16-8 10-11 14-14 17-7 9 5 5 13 11 14 11 16 13 14 11 16 13 14 11 5 3 14-17 11-14 13-16 8-10 11-14 13-16 8-10 11-14 13-16 8-10 13-16 11-14 13-16 11-14 13-16 11-14 9-11 13-16 11-14 9-11 11-14 10-12 10-13 9-11 8-10 11-14 10-12 10-13 10-12 3-4v-2h2l10-13 14-17 11-14 13-16 11-14 13-16 11-14 13-16 11-14 13-16 11-14 13-16 11-14 9-11 11-14 13-16 11-14 14-17 11-14 9-11 11-14 13-16 11-14 9-11 13-16 11-14 14-18 8-10-5-5-11-9-16-13-14-11-16-13-14-11-16-13zm-673 852-8 16-8 15-11 23-65 130-1 8 3 5 4 3 6 1 8-4 13-11 14-11 12-10 11-9 10-8 16-13 14-11 13-11 20-16 13-11 9-7 10-8 2-4-16-13-14-11-16-13-14-11-17-14-7-5z"/>
<path transform="translate(887,993)" d="m0 0h424l11 3 8 6 5 6 4 9v14l-6 12-8 7-6 3-11 2h-417l-13-1-10-4-9-9-4-8-1-4v-9l3-10 6-8 8-6 5-2z"/>
<path transform="translate(879,698)" d="m0 0h434l9 3 6 4 8 9 3 8v13l-4 9-5 7-7 5-11 3h-432l-9-3-6-4-7-8-4-11v-9l4-11 7-8 8-5z"/>
<path transform="translate(878,565)" d="m0 0h437l10 4 7 6 5 8 2 6v13l-4 9-8 9-8 4-15 2h-420l-10-2-8-4-7-8-4-8-1-4v-9l3-10 4-6h2l1-3 10-6z"/>
<path transform="translate(703,1420)" d="m0 0h15l9 4 8 7 5 9 1 4v12l-4 10-10 15-12 17-14 20-9 13-14 20-9 13-12 17-14 20-8 11-8 8-10 6-10 4-11 2h-10l-14-3-10-5-10-8-12-11-8-7-20-18-11-9-15-14-6-10-2-11 3-12 6-9 9-6 9-3h8l11 4 9 7 10 9 8 7 10 9 8 7 21 18 5-5 8-12 12-17 14-20 12-17 13-19 13-18 8-12 10-14 1-2h2l2-4 10-6z"/>
<path transform="translate(707,987)" d="m0 0h7l10 3 8 6 6 7 3 8v13l-4 10-9 13-16 23-21 30-12 17-13 19-10 14-7 10-12 17-8 9-9 6-11 5-7 2h-21l-13-4-11-7-11-10-8-7-10-9-8-7-11-10-11-9-12-12-6-9-2-11 2-10 6-10 7-6 10-4h12l10 4 10 8 13 12 8 7 10 9 8 7 14 12 4 1 13-19 12-17 16-23 12-17 16-23 7-10 11-16 9-12 7-6 7-3z"/>
<path transform="translate(705,549)" d="m0 0h11l9 3 8 6 6 9 2 7v11l-3 8-7 12-11 15-11 16-14 20-12 17-13 19-10 14-7 10-11 16-9 12h-2v2l-11 8-12 5-9 2h-16l-12-3-11-6-13-11-12-11-10-9-8-7-10-9-8-7-10-9-6-7-4-8-1-9 3-12 6-8 7-6 8-3h14l12 6 14 12 12 11 8 7 11 10 11 9 5 5 3 1 2-5 6-8 14-20 12-17 11-16 12-17 16-23 7-10 11-16 7-8 6-5z"/>
<path transform="translate(889,1126)" d="m0 0h194l20 1 10 4 7 6 6 10 1 3v14l-6 12-7 7-10 4-19 1h-197l-11-1-9-4-7-6-6-11-1-4v-9l3-9 6-9 9-6 5-2z"/>
</svg>
